<?xml version="1.0" standalone="no"?>
<!DOCTYPE svg PUBLIC "-//W3C//DTD SVG 20010904//EN"
 "http://www.w3.org/TR/2001/REC-SVG-20010904/DTD/svg10.dtd">
<svg version="1.0" xmlns="http://www.w3.org/2000/svg"
 width="323.000000pt" height="156.000000pt" viewBox="0 0 323.000000 156.000000"
 preserveAspectRatio="xMidYMid meet">

<g transform="translate(0.000000,156.000000) scale(0.100000,-0.100000)"
fill="#000000" stroke="none">
<path d="M90 1550 c0 -5 7 -10 15 -10 12 0 15 -13 15 -55 0 -30 5 -55 10 -55
6 0 10 23 10 51 0 42 3 52 20 56 36 9 21 23 -25 23 -25 0 -45 -4 -45 -10z"/>
<path d="M210 1495 c0 -37 4 -65 10 -65 6 0 10 11 10 25 0 20 5 25 25 25 20 0
25 -5 25 -25 0 -14 5 -25 10 -25 6 0 10 28 10 65 0 37 -4 65 -10 65 -5 0 -10
-14 -10 -31 0 -26 -3 -30 -22 -27 -17 2 -24 11 -26 31 -6 53 -22 26 -22 -38z"/>
<path d="M350 1495 l0 -65 40 0 c47 0 54 17 8 22 -42 4 -50 28 -9 28 38 0 41
18 4 22 -40 4 -36 32 5 36 46 5 40 22 -8 22 l-40 0 0 -65z"/>
<path d="M530 1507 c0 -60 12 -77 52 -77 33 0 48 28 48 91 0 28 -4 39 -15 39
-12 0 -15 -13 -15 -56 0 -52 -1 -55 -22 -52 -20 3 -23 10 -26 56 -4 68 -22 68
-22 -1z"/>
<path d="M670 1495 c0 -37 4 -65 10 -65 6 0 10 19 10 43 l0 42 26 -42 c14 -24
29 -43 35 -43 5 0 9 29 9 65 0 37 -4 65 -10 65 -5 0 -10 -19 -10 -42 l0 -43
-28 42 c-15 24 -30 43 -34 43 -5 0 -8 -29 -8 -65z"/>
<path d="M810 1495 c0 -37 4 -65 10 -65 6 0 10 28 10 65 0 37 -4 65 -10 65 -6
0 -10 -28 -10 -65z"/>
<path d="M862 1548 c3 -7 13 -37 23 -65 11 -29 24 -53 29 -53 12 0 59 120 51
129 -9 8 -22 -12 -36 -54 l-13 -40 -20 48 c-11 26 -24 47 -29 47 -5 0 -7 -6
-5 -12z"/>
<path d="M990 1495 l0 -65 47 0 c48 0 51 15 4 22 -37 5 -39 28 -2 28 38 0 41
18 4 22 -17 2 -28 9 -28 18 0 9 11 16 28 18 42 5 32 22 -13 22 l-40 0 0 -65z"/>
<path d="M1110 1495 c0 -51 3 -65 15 -65 9 0 15 9 15 25 0 18 5 25 20 25 15 0
20 -7 20 -25 0 -16 6 -25 16 -25 8 0 12 5 9 10 -4 6 -7 31 -7 55 0 49 -15 65
-62 65 -25 0 -26 -2 -26 -65z m65 25 c0 -8 -8 -16 -17 -18 -13 -2 -18 3 -18
18 0 15 5 20 18 18 9 -2 17 -10 17 -18z"/>
<path d="M1248 1543 c-20 -23 -13 -40 23 -58 34 -18 38 -35 9 -35 -11 0 -20 5
-20 10 0 6 -7 10 -15 10 -8 0 -15 -4 -15 -9 0 -17 29 -32 57 -29 22 2 29 9 31
29 2 21 -3 29 -27 39 -17 7 -31 16 -31 21 0 15 21 21 36 8 19 -16 30 -4 14 16
-17 20 -43 19 -62 -2z"/>
<path d="M1360 1495 c0 -37 4 -65 10 -65 6 0 10 28 10 65 0 37 -4 65 -10 65
-6 0 -10 -28 -10 -65z"/>
<path d="M1400 1550 c0 -5 9 -10 20 -10 18 0 20 -7 20 -56 0 -39 4 -54 12 -52
8 3 11 21 9 52 -2 41 0 48 18 53 38 10 22 23 -29 23 -27 0 -50 -4 -50 -10z"/>
<path d="M1535 1520 c14 -22 25 -51 25 -65 0 -14 5 -25 10 -25 6 0 10 12 10
28 0 15 9 41 20 57 21 32 25 45 12 45 -5 0 -15 -11 -22 -25 -7 -14 -16 -25
-20 -25 -4 0 -12 11 -18 25 -6 14 -18 25 -27 25 -12 0 -10 -8 10 -40z"/>
<path d="M1720 1540 c-39 -39 -14 -110 39 -110 38 0 51 17 51 67 0 32 -5 45
-19 53 -29 15 -49 12 -71 -10z m65 -24 c20 -30 6 -66 -25 -66 -36 0 -48 60
-16 82 18 12 25 9 41 -16z"/>
<path d="M1850 1495 c0 -37 4 -65 10 -65 6 0 10 11 10 25 0 20 5 25 24 25 35
0 42 18 9 22 -37 4 -37 32 0 36 42 5 32 22 -13 22 l-40 0 0 -65z"/>
<path d="M2010 1551 c0 -5 9 -11 20 -14 17 -4 20 -14 20 -56 0 -28 5 -51 10
-51 6 0 10 25 10 55 0 48 2 55 20 55 11 0 20 5 20 10 0 6 -22 10 -50 10 -27 0
-50 -4 -50 -9z"/>
<path d="M2140 1495 l0 -65 40 0 c22 0 40 5 40 10 0 6 -13 10 -30 10 -20 0
-30 5 -30 15 0 9 9 15 24 15 35 0 42 18 9 22 -37 4 -37 32 0 36 42 5 32 22
-13 22 l-40 0 0 -65z"/>
<path d="M2270 1525 l22 -35 -22 -27 c-14 -18 -17 -29 -10 -31 6 -2 19 6 27
18 l16 23 17 -23 c9 -12 23 -21 29 -19 9 3 5 13 -10 32 l-22 29 23 30 c27 36
16 53 -12 18 l-20 -25 -18 23 c-29 36 -44 26 -20 -13z"/>
<path d="M2402 1499 c-22 -57 -22 -95 -1 -56 6 9 21 17 34 17 13 0 28 -8 34
-17 5 -10 12 -15 15 -12 9 9 -36 129 -48 129 -6 0 -22 -28 -34 -61z m36 -18
c-15 -5 -19 4 -11 24 6 18 7 18 13 -1 4 -10 3 -21 -2 -23z"/>
<path d="M2526 1544 c-26 -25 -17 -47 27 -63 15 -6 27 -15 27 -21 0 -14 -47
-12 -53 3 -2 6 -7 9 -11 6 -3 -3 -4 -14 0 -23 5 -13 16 -16 43 -14 31 3 36 7
36 28 0 17 -8 29 -27 38 -16 7 -28 20 -28 28 0 17 22 18 38 2 17 -17 28 -2 12
17 -16 19 -44 19 -64 -1z"/>
<path d="M1853 1348 c-43 -9 -59 -28 -24 -28 21 0 31 -19 31 -61 0 -27 -2 -29
-41 -29 -78 0 -139 -46 -159 -119 -18 -70 24 -152 88 -168 15 -4 41 2 68 15
42 21 44 21 44 3 0 -16 4 -17 45 -7 55 15 63 22 30 30 l-25 6 0 185 c0 102 -3
185 -7 184 -5 -1 -27 -5 -50 -11z m-6 -160 c9 -7 13 -40 13 -98 l0 -88 -30
-12 c-59 -25 -113 26 -113 106 0 51 16 88 47 103 23 11 63 6 83 -11z"/>
<path d="M1085 1178 c-69 -174 -87 -208 -112 -208 -7 0 -13 -4 -13 -10 0 -6
28 -10 65 -10 64 0 86 12 44 23 -23 6 -23 29 0 90 10 26 14 27 75 27 l64 0 17
-50 c17 -51 14 -70 -11 -70 -8 0 -14 -4 -14 -10 0 -6 53 -10 140 -10 127 0
173 9 120 23 -18 5 -20 14 -20 99 0 92 1 95 25 106 33 15 68 15 83 0 8 -8 12
-46 12 -106 0 -85 -2 -94 -20 -99 -41 -11 -18 -23 45 -23 37 0 65 4 65 10 0 6
-6 10 -14 10 -21 0 -28 30 -26 107 2 103 2 108 -20 131 -26 28 -72 28 -116 1
l-34 -21 0 22 c0 16 -5 20 -17 16 -10 -3 -30 -8 -45 -12 -29 -6 -39 -24 -14
-24 8 0 17 -7 20 -16 8 -20 8 -168 0 -188 -8 -21 -58 -21 -74 -1 -7 9 -41 93
-75 187 -34 95 -66 173 -72 175 -5 2 -41 -74 -78 -169z m88 9 l25 -67 -54 0
-53 0 19 53 c25 71 32 88 36 85 1 -2 14 -34 27 -71z"/>
<path d="M114 1304 l29 -16 -7 -112 c-10 -175 -14 -195 -42 -202 -47 -12 -23
-24 46 -24 66 0 98 15 48 22 -22 3 -23 6 -24 136 -1 72 1 132 5 132 3 0 30
-60 60 -133 30 -72 59 -138 66 -145 9 -10 23 13 65 110 96 220 90 216 87 48
-2 -142 -2 -145 -24 -148 -13 -2 -23 -8 -23 -13 0 -7 66 -9 188 -7 172 3 191
5 235 26 130 65 139 266 13 323 -35 16 -67 19 -214 19 l-173 0 -65 -137 c-35
-75 -67 -133 -70 -130 -3 3 -32 63 -64 134 l-59 128 -53 2 -53 3 29 -16z m467
-4 c17 -10 19 -23 19 -155 0 -79 -3 -150 -6 -159 -7 -20 -67 -22 -82 -3 -16
19 -18 293 -2 312 14 17 43 19 71 5z m209 -19 c49 -26 75 -74 75 -141 0 -93
-50 -155 -136 -166 -74 -10 -79 0 -79 170 0 78 3 146 7 149 13 14 99 6 133
-12z"/>
<path d="M2022 1210 c-36 -22 -71 -88 -72 -133 -1 -92 91 -163 163 -126 32 16
67 51 62 59 -3 5 -21 0 -41 -10 -60 -31 -118 3 -126 75 l-3 30 85 5 c84 5 85
5 88 33 2 20 -5 35 -27 57 -36 36 -80 39 -129 10z m68 -10 c11 -6 25 -20 31
-32 15 -28 -2 -38 -63 -38 -56 0 -63 16 -23 55 27 28 29 29 55 15z"/>
<path d="M2233 1218 c-36 -12 -42 -23 -18 -32 12 -4 15 -26 15 -107 0 -92 -2
-101 -20 -106 -44 -12 -16 -23 56 -23 47 0 73 4 69 10 -3 6 -13 10 -20 10 -23
0 -35 34 -35 98 0 79 26 116 75 106 37 -7 50 5 40 36 -9 28 -50 26 -81 -5 -14
-14 -27 -25 -31 -25 -3 0 -3 11 -1 25 6 27 1 29 -49 13z"/>
<path d="M2452 1214 c-52 -36 -47 -101 9 -132 62 -34 83 -56 76 -85 -4 -14
-15 -27 -25 -30 -26 -5 -67 18 -80 47 -12 28 -38 37 -28 10 3 -9 6 -26 6 -38
0 -45 81 -60 137 -26 65 39 57 106 -19 147 -61 33 -78 55 -62 81 22 35 65 23
93 -26 15 -27 25 -6 15 30 -9 30 -13 33 -54 36 -29 2 -53 -3 -68 -14z"/>
<path d="M2695 1214 c-50 -25 -70 -61 -70 -129 0 -69 20 -103 73 -129 58 -28
111 -16 161 38 32 34 41 119 17 165 -33 63 -115 89 -181 55z m101 -28 c24 -20
28 -32 32 -87 5 -77 -9 -116 -44 -129 -69 -27 -129 92 -94 187 21 56 62 67
106 29z"/>
<path d="M2938 1217 c-42 -12 -48 -22 -18 -30 19 -5 21 -12 18 -109 -3 -98 -4
-103 -25 -106 -51 -7 -19 -22 47 -22 67 0 93 12 50 23 -18 5 -20 14 -20 99 0
92 1 95 25 106 33 15 68 15 83 0 8 -8 12 -46 12 -106 0 -85 -2 -94 -20 -99
-43 -11 -17 -23 50 -23 40 0 70 4 70 10 0 6 -9 10 -20 10 -19 0 -20 7 -20 89
0 49 -4 101 -9 114 -23 59 -77 74 -137 36 l-34 -21 0 21 c0 23 1 23 -52 8z"/>
<path d="M223 881 c-89 -23 -148 -91 -159 -183 -6 -52 -8 -56 -25 -45 -14 9
-21 9 -30 0 -20 -20 -2 -43 33 -43 28 0 37 -6 53 -36 11 -20 39 -47 64 -62 41
-24 56 -27 130 -26 75 0 86 3 103 23 10 13 18 31 18 40 0 10 6 26 14 37 14 18
15 17 14 -13 -1 -38 23 -79 52 -88 13 -4 34 1 56 14 34 21 34 21 54 1 19 -19
22 -19 50 -5 17 9 30 11 30 5 0 -12 127 -14 134 -1 3 5 -3 11 -14 14 -16 4
-20 14 -20 49 l0 44 58 0 57 -1 3 -43 c3 -37 0 -44 -17 -49 -42 -11 -19 -23
44 -23 63 0 86 12 45 23 -16 4 -20 14 -20 51 0 39 3 46 20 46 14 0 20 -7 20
-24 0 -33 43 -82 85 -96 43 -14 92 -1 125 35 28 30 20 43 -12 21 -47 -33 -127
-8 -141 44 -6 22 30 50 42 33 3 -5 26 -8 51 -7 72 3 83 -3 107 -57 36 -82 115
-100 183 -42 34 28 31 52 -3 28 -35 -24 -80 -19 -110 13 -37 39 -35 53 6 45
17 -4 69 -7 115 -8 l82 0 0 -38 c0 -30 -4 -40 -20 -44 -43 -11 -17 -23 50 -23
70 0 93 12 45 24 -20 5 -25 13 -25 37 l0 30 70 -7 c40 -4 70 -3 70 2 0 5 -30
19 -67 30 -76 24 -88 44 -58 91 14 21 22 24 47 19 39 -8 62 9 47 35 -14 27
-48 24 -81 -8 l-28 -27 0 28 c0 21 -4 26 -17 22 -10 -3 -30 -8 -45 -12 -33 -7
-36 -20 -8 -27 16 -4 20 -14 20 -46 l0 -41 -62 1 c-59 1 -61 2 -30 11 42 14
43 48 3 89 -51 51 -138 30 -178 -43 l-18 -33 -96 5 c-95 5 -96 5 -88 28 5 12
20 27 34 34 26 12 32 11 97 -17 26 -11 37 24 13 41 -28 21 -82 17 -126 -8 -22
-12 -39 -24 -39 -27 -1 -14 -38 -49 -58 -55 -19 -7 -22 -4 -22 24 0 40 -39 80
-77 80 -15 0 -43 -9 -61 -20 -40 -25 -41 -25 -35 0 6 23 2 24 -49 9 -43 -11
-47 -19 -18 -37 11 -7 20 -21 20 -32 0 -17 -7 -20 -50 -20 -49 0 -50 1 -50 30
0 37 -31 70 -67 70 -33 0 -113 -38 -120 -56 -3 -8 0 -21 6 -28 7 -8 8 -16 4
-19 -4 -3 -79 -8 -165 -12 l-158 -7 0 54 c0 95 61 160 150 160 54 0 93 -23
106 -64 3 -10 10 -18 16 -18 10 0 6 85 -4 95 -9 9 -145 14 -175 6z m1155 -147
c12 -8 22 -26 22 -40 0 -23 -3 -24 -55 -24 -63 0 -71 15 -30 55 28 29 33 30
63 9z m-808 -13 c20 -39 13 -49 -42 -53 -29 -2 -54 -3 -56 -3 -2 2 16 39 31
63 13 19 55 14 67 -7z m316 -8 c23 -30 16 -42 -30 -48 -56 -9 -87 0 -79 23 15
42 84 58 109 25z m-706 -113 c5 8 10 10 10 4 0 -14 106 -18 115 -4 3 5 11 10
16 10 6 0 8 -4 4 -9 -3 -6 11 -9 35 -8 22 2 40 0 40 -4 0 -17 -47 -63 -77 -75
-54 -23 -132 5 -158 56 -17 32 -20 53 -5 30 9 -13 11 -13 20 0z m398 -28 c3
-27 -1 -34 -24 -42 -21 -9 -31 -7 -46 7 -28 25 -19 57 17 64 44 9 50 6 53 -29z
m140 29 c17 -1 15 -66 -3 -81 -12 -10 -19 -10 -27 -2 -7 7 -20 12 -30 12 -19
0 -34 39 -25 64 5 13 14 13 85 7z"/>
<path d="M1914 881 c-80 -20 -144 -90 -158 -171 -20 -115 84 -230 209 -230 71
0 107 12 125 43 18 29 18 29 30 7 16 -29 74 -53 111 -45 35 8 92 53 83 66 -3
5 -15 2 -27 -6 -12 -8 -36 -15 -53 -15 -40 0 -84 48 -84 91 0 29 0 29 63 29
34 0 72 3 85 6 56 15 -4 114 -70 114 -18 0 -47 -9 -64 -19 -36 -22 -74 -93
-74 -138 0 -67 -79 -122 -150 -103 -94 25 -142 135 -110 251 30 107 195 143
239 52 24 -48 39 -42 31 12 -4 25 -9 47 -12 50 -9 9 -144 14 -174 6z m339
-163 c27 -36 15 -48 -49 -48 -62 0 -68 12 -29 54 30 32 51 31 78 -6z"/>
<path d="M2682 827 c-12 -13 -22 -33 -22 -46 0 -12 -4 -20 -9 -17 -5 3 -14 -1
-21 -9 -10 -13 -9 -15 9 -15 20 0 21 -5 21 -105 0 -99 2 -107 25 -130 28 -29
36 -30 75 -10 31 16 42 42 14 31 -9 -4 -25 -4 -35 -1 -17 6 -19 18 -19 111 l0
104 36 0 c45 0 42 24 -4 28 -30 3 -32 6 -32 43 0 45 -8 48 -38 16z"/>
<path d="M2375 758 c-40 -14 -40 -13 -16 -37 18 -18 21 -33 21 -97 0 -79 -11
-114 -35 -114 -8 0 -15 -4 -15 -10 0 -6 30 -10 70 -10 67 0 93 12 50 23 -18 5
-20 14 -20 101 0 105 6 116 69 116 42 0 51 -23 51 -125 0 -78 -2 -87 -20 -92
-41 -11 -18 -23 45 -23 63 0 86 12 45 23 -18 5 -20 14 -20 105 0 85 -3 103
-21 126 -25 32 -70 35 -116 6 -33 -20 -33 -20 -33 0 0 22 -10 24 -55 8z"/>
<path d="M2857 751 c-81 -53 -95 -165 -30 -233 46 -48 114 -45 167 8 23 22 9
37 -17 19 -53 -37 -137 8 -137 74 l0 31 63 0 c82 0 107 8 107 32 0 24 -18 59
-39 75 -24 18 -82 15 -114 -6z m84 -22 c35 -35 22 -54 -44 -57 -31 -2 -57 0
-57 3 0 3 7 19 15 35 23 44 54 51 86 19z"/>
<path d="M3068 758 c-42 -11 -49 -23 -18 -31 18 -5 20 -14 20 -107 0 -93 -2
-102 -20 -107 -43 -11 -17 -23 50 -23 66 0 98 15 48 22 -21 3 -23 9 -26 82 -4
104 11 131 69 121 40 -7 40 -7 37 21 -4 41 -41 44 -79 8 l-29 -28 0 27 c0 15
-3 27 -7 26 -5 -1 -25 -6 -45 -11z"/>
<path d="M408 145 c4 -70 3 -75 -16 -75 -17 0 -21 7 -24 43 -2 34 -7 43 -24
45 -11 2 -27 -4 -34 -13 -7 -9 -8 -15 -2 -15 6 0 12 5 14 12 5 13 28 2 28 -13
0 -5 -11 -14 -25 -19 -25 -9 -36 -49 -15 -51 6 0 37 -1 70 -2 58 -2 59 -2 53
23 l-6 25 24 -22 c24 -22 38 -26 74 -24 18 1 20 7 17 51 -3 32 -8 50 -15 47
-7 -2 -10 -20 -9 -44 2 -23 0 -43 -5 -46 -5 -3 -25 10 -46 29 -32 30 -37 40
-37 79 0 30 -4 45 -13 45 -9 0 -11 -19 -9 -75z m-58 -55 c0 -11 -7 -20 -15
-20 -27 0 -18 30 13 39 1 1 2 -8 2 -19z"/>
<path d="M108 198 c14 -14 16 -61 3 -106 -8 -27 -7 -32 7 -32 14 0 17 9 15 52
l-3 53 23 -45 c12 -25 26 -47 31 -48 4 -2 19 19 32 45 l24 48 -3 -56 c-3 -52
-2 -55 18 -51 20 3 21 7 13 64 -6 42 -5 65 3 74 9 11 7 14 -9 14 -14 0 -26
-15 -45 -57 l-25 -58 -27 58 c-20 43 -32 57 -48 57 -16 0 -18 -3 -9 -12z"/>
<path d="M887 190 c-33 -26 -38 -87 -9 -112 36 -32 112 -33 112 -2 0 12 -4 12
-24 -1 -58 -38 -116 55 -66 105 24 24 53 26 75 3 16 -16 17 -15 13 3 -5 29
-66 31 -101 4z"/>
<path d="M1568 201 c10 -6 13 -27 10 -74 -3 -61 -2 -66 20 -70 12 -2 22 0 22
4 0 5 -4 9 -10 9 -5 0 -10 14 -10 30 0 28 2 30 40 30 38 0 40 -2 40 -30 0 -16
-4 -30 -10 -30 -5 0 -10 -3 -10 -7 0 -5 13 -8 30 -8 18 0 26 4 20 10 -14 13
-12 119 2 133 9 9 4 12 -22 11 -19 0 -29 -3 -22 -6 6 -2 12 -18 12 -34 0 -27
-2 -29 -40 -29 -35 0 -40 3 -40 23 0 13 5 28 12 35 9 9 4 12 -22 12 -23 0 -30
-3 -22 -9z"/>
<path d="M2245 199 c-3 -4 -2 -14 1 -23 5 -12 0 -16 -21 -16 -14 0 -24 -4 -20
-10 3 -5 2 -22 -1 -37 l-7 -28 -13 30 c-7 17 -10 33 -7 38 6 10 -92 6 -109 -4
-11 -7 -10 -9 1 -9 9 0 12 -11 9 -39 -3 -31 0 -41 13 -44 14 -4 15 2 11 38 -4
39 -2 43 21 47 22 4 27 0 41 -36 20 -52 20 -61 0 -81 -9 -9 -14 -18 -11 -21
12 -12 24 7 50 74 22 56 33 71 60 83 17 8 32 20 32 28 0 15 -42 23 -50 10z
m36 -14 c11 6 11 5 2 -5 -12 -14 -33 -6 -33 13 0 8 3 7 9 -2 5 -8 14 -10 22
-6z"/>
<path d="M520 190 c0 -5 5 -10 10 -10 6 0 10 5 10 10 0 6 -4 10 -10 10 -5 0
-10 -4 -10 -10z"/>
<path d="M1750 190 c0 -5 5 -10 10 -10 6 0 10 5 10 10 0 6 -4 10 -10 10 -5 0
-10 -4 -10 -10z"/>
<path d="M1896 181 c-11 -18 -8 -113 4 -125 4 -4 16 -3 27 3 17 10 17 10 1 11
-14 0 -18 8 -18 35 0 22 6 38 18 44 15 9 15 10 0 11 -9 0 -18 8 -20 18 -3 14
-5 15 -12 3z"/>
<path d="M453 139 c-2 -21 -1 -21 20 -3 12 10 24 20 26 21 2 2 -7 3 -20 3 -18
0 -25 -6 -26 -21z"/>
<path d="M577 148 c-9 -6 -9 -8 1 -8 7 0 12 -14 12 -35 0 -19 -4 -35 -10 -35
-5 0 -10 -4 -10 -9 0 -5 8 -7 18 -5 12 4 17 15 17 42 0 31 4 38 24 40 23 4 24
2 19 -40 -4 -37 -2 -44 12 -44 15 0 17 7 13 41 -3 22 -6 46 -9 53 -4 13 -66
13 -87 0z"/>
<path d="M705 148 c-3 -7 -3 -31 -1 -53 1 -22 -1 -46 -7 -52 -17 -23 0 -43 36
-43 65 0 79 60 17 71 l-35 6 28 11 c22 9 47 45 47 68 0 11 -81 3 -85 -8z m50
-23 c0 -11 -8 -21 -17 -23 -14 -3 -18 3 -18 23 0 20 4 26 18 23 9 -2 17 -12
17 -23z m18 -82 c10 -10 -13 -33 -34 -33 -21 0 -33 15 -24 30 7 11 48 14 58 3z"/>
<path d="M1020 145 c-8 -9 -8 -15 -2 -15 6 0 14 5 17 10 11 18 22 2 23 -35 1
-25 -3 -35 -13 -35 -18 0 -19 12 -2 29 10 11 9 13 -6 7 -10 -3 -21 -6 -23 -6
-7 0 -4 -40 4 -41 13 -1 66 -2 97 0 29 1 30 3 27 41 -4 36 -2 40 18 40 21 0
22 -4 18 -44 -5 -39 -3 -43 13 -39 13 4 19 14 19 35 0 50 -15 67 -57 64 l-38
-2 4 -43 c2 -37 0 -42 -16 -39 -13 2 -19 15 -23 43 -4 31 -10 41 -26 43 -11 2
-27 -4 -34 -13z"/>
<path d="M1247 142 c-38 -41 -9 -99 41 -85 28 7 28 20 1 19 -12 -1 -26 7 -33
17 -15 23 5 53 33 50 12 -2 21 2 21 7 0 17 -46 11 -63 -8z"/>
<path d="M1342 148 c-22 -29 -23 -57 -3 -77 25 -25 31 -26 57 -6 18 15 18 15
-8 9 -20 -4 -29 -1 -38 15 -9 18 -8 21 12 21 13 0 29 4 37 9 12 8 12 12 2 25
-16 19 -45 21 -59 4z m43 -8 c3 -6 -1 -13 -10 -16 -19 -8 -30 0 -20 15 8 14
22 14 30 1z"/>
<path d="M1439 156 c0 -1 -1 -22 -2 -48 -2 -36 2 -48 14 -51 14 -4 16 2 11 35
-4 34 -2 40 17 45 31 8 26 22 -9 21 -16 -1 -30 -1 -31 -2z"/>
<path d="M1749 158 c0 -2 -1 -24 -2 -50 -2 -38 1 -48 16 -52 13 -3 17 0 13 11
-3 8 -6 32 -6 54 0 21 -4 39 -10 39 -5 0 -10 -1 -11 -2z"/>
<path d="M1807 153 c-15 -14 -6 -42 19 -58 20 -13 23 -20 14 -28 -9 -9 -14 -8
-24 6 -16 21 -27 23 -20 3 7 -18 29 -27 49 -20 23 9 19 55 -5 61 -11 3 -20 12
-20 19 0 17 12 18 28 2 9 -9 12 -8 12 5 0 17 -39 25 -53 10z"/>
<path d="M1962 148 c-7 -7 -12 -27 -12 -45 0 -27 5 -35 26 -44 54 -20 99 45
58 85 -18 19 -55 21 -72 4z m56 -37 c4 -41 -11 -60 -33 -41 -15 13 -21 61 -8
74 17 16 38 -1 41 -33z"/>
</g>
</svg>
