<svg xmlns="http://www.w3.org/2000/svg" height="800" width="1200" viewBox="-150.0282 -64.64075 1300.2444 387.8445"><path d="M258.503 128.077c-.02-2.635-2.205-4.878-4.87-4.878-.382 0-.758.074-1.133.167-42.904 8.87-87.648 12.425-133.462 9.905-14.116-.783-28 0-41.67 1.05a43.225 43.225 0 00-3.09.333c-10.956 1.5-21.432 6.362-29.55 14.292-7.21 7.055-12.312 16.145-14.484 26.018-2.611 11.873-.768 24.139 4.269 35.12 4.87 10.663 12.69 19.937 22.396 26.6a129.421 129.421 0 0034.276 16.276c7.667 2.3 14.495 3.727 22.559 4.727.108-3.051 4.71-7.813 4.874-10.105.162-2.294-1.572-4.313-3.857-4.461-12.562.476-21.776.167-33.566-4.22-12.1-4.527-23.047-11.998-31.694-21.563-4.16-4.611-7.608-9.664-9.832-15.468a44.748 44.748 0 01-2.763-18.228c1.175-20.771 17.34-38.354 37.968-41.316 11.407-1.633 23.219 1.3 32.524 8.104a44.413 44.413 0 0112.048 13.25c3.449 5.862 6.333 12.066 8.343 18.569 4.173 13.55 4.549 28.367 2.765 42.35a114.74 114.74 0 01-3.724 17.578c-.954 3.259-2.117 6.503-3.398 9.655a5.06 5.06 0 00-.366 1.87c0 2.65 2.117 4.768 4.723 4.845.326 0 .888.016 1.222.016 31.744 0 60.798-11.424 83.315-30.345.017-.008.058-.058.075-.066a4.664 4.664 0 001.456-3.411c0-.99-.342-1.858-.795-2.65-8.443-14.651-26.822-35.686-26.822-35.686s20.8 18.617 35.717 26.773c.806.424 1.686.773 2.683.773 1.333 0 2.547-.516 3.413-1.41a.491.491 0 00.154-.156c18.924-22.48 30.307-51.48 30.307-83.125-.001-.391-.011-.783-.011-1.183" fill="#187FC3"/><path d="M24.565 187.286c-5.112-11.356-8.271-23.62-9.038-36.004-.088-1.685-.064-3.936-.072-5.611a4.192 4.192 0 00-4.19-4.202c-2.321 0-7.25 4.235-10.697 4.235 3.523 27.349 15.904 53.18 35.02 73.06 9.353 9.749 20.938 17.294 34.097 20.862 11.298 3.068 23.3 1.675 33.736-3.585 4.995-2.535 9.589-5.928 13.396-10.058 4.064-4.368 7.187-9.695 10.083-14.884 3.04-5.501 5.679-11.196 8.068-17.024 2.518-6.17 4.619-12.533 7.404-18.644 10.535-22.981 25.374-44.002 45.423-59.646a152.634 152.634 0 0131.864-19.118 147.709 147.709 0 0117.77-6.571c2.885-.86 5.832-1.66 8.768-2.36 2.629-.816 4.089-3.602 3.202-6.17-7.342-18.585-19.141-35.313-34.024-48.612-.101-.1-.188-.191-.288-.284-.855-.741-1.968-1.226-3.202-1.226-1.335 0-2.452.793-3.47 1.509-23.896 16.569-41.495 44.242-41.495 44.242s9.314-23.655 29.184-52.83c.505-.7.725-1.585.725-2.501a4.793 4.793 0 00-2.534-4.254C182 10.464 168.575 5.278 154.58 2.502A129.46 129.46 0 00123.56.126c-.024-.017-.066-.017-.087-.017-.058 0-.1.017-.158.017-2.598.074-4.586 2.217-4.69 4.819-1.322 33.97 5.336 92.372 5.336 92.372s-11.864-57.55-23.555-89.486c-.701-1.936-2.434-3.395-4.594-3.395-.334 0-.668.034-.963.083-.037.026-.071.049-.113.049-.838.209-1.671.45-2.51.693-19.537 5.795-37.605 16.243-52.377 30.243-2.542 2.41-4.97 4.944-7.333 7.579-.05.049-.121.125-.164.15-.8.892-1.305 2.027-1.305 3.31 0 1.317.472 2.686 1.45 3.436 25.525 19.379 44.349 41.45 44.349 41.45S52.674 73.604 23.944 62.28c-.821-.308-1.597-.725-2.518-.725-1.676 0-3.135.85-4.015 2.135-.017.018-.026.042-.042.066C13.22 70.843 9.685 78.28 6.942 86.003A129.705 129.705 0 00.138 116.51c-.263 2.652-.434 5.37 2.288 6.855 1.076.599 2.272.692 3.458.458a96.5 96.5 0 015.303-1.001 122.705 122.705 0 0120.716-1.56c13.892.135 27.724 2.66 40.712 7.496 11.985 4.494 22.942 11.507 31.246 21.346 15.627 18.562 24.003 50.438 5.97 70.218-8.266 9.07-20.44 13.492-32.627 12.407-6.266-.594-11.815-2.776-17.29-5.736-4.994-2.71-9.735-5.828-13.974-9.59-9.255-8.237-16.334-18.902-21.375-30.118" fill="#F9BE00"/><path d="M578.438 120.73c0-2.11 11.857-.45 17.396 1.226 4.443 1.369 11.539 3.41 19 9.164 4.253 3.294 9.463 9.13 9.463 16.133 0 6.964-4.2 10.509-9.336 10.509-2.786-.375-5.654-2.043-8.171-4.578-2.535-2.52-4.504-7.604-11.843-16.02-8.304-9.505-16.51-15.024-16.51-16.434m-7.869-68.49l.017-13.307 5.852-1.851-.008-.033c.702-.193 1.262-.801 1.262-1.601 0-.81-.635-1.477-1.436-1.602v-.042l-26.918-4.036V52.24h-58.73l1.863 4.019h138.682s1.668-2.435 0-4.02c-1.667-1.601-16.424-10.73-16.424-10.73l-9.808 10.73zm-24.005 73.868l.014-.023-23.871-8.33c-8.821 14.608-16.985 26.397-29.843 37.28l.017.016a1.182 1.182 0 00-.466.934c0 .709.58 1.277 1.263 1.277.163 0 .313-.052.442-.11v.019c.017-.018.024-.018.05-.018v-.01c11.34-4.118 27.738-14.55 47.149-27.766l4.754-.024c.915 0 1.682-.734 1.682-1.66-.001-.758-.508-1.368-1.191-1.585m260.361-54.723c-2.185-2.092-18.128-11.907-18.128-11.907l-9.948 11.907H743.47l.017-32.452 5.863-1.851-.012-.033c.728-.193 1.269-.801 1.269-1.601 0-.81-.651-1.477-1.434-1.602v-.042l-28.001-4.036v41.617h-53.946l1.866 4.028h52.08c-.322 19.877-4.935 35.346-11.755 46.619-8.488 14.218-21.497 27.399-42.426 38.799 0 0-.017 0-.017.025-.083.05-.158.084-.225.125h.007c-.317.258-.532.599-.532 1.025 0 .699.558 1.249 1.259 1.249.116 0 .242-.033.359-.048l.015.015c25.24-7.237 45.52-18.652 56.002-32.42 8.97-11.78 15.293-25.097 17.144-42.35 1.885 15.319 5.75 27.644 11.48 36.839 7.314 13.125 19.452 25.616 35.963 35.905.118.083.217.15.34.218a1.55 1.55 0 001.551-.192c.368-.241.636-.71.719-1.151 1.093-6.104 9.047-11.406 15.14-13.6-19.511-10.85-35.428-23.838-43.165-33.645-9.308-11.723-15.808-24.206-19.226-37.413h63.118s2.17-1.936 0-4.028m73.527-36.306c-.167.318-.135.86.243 1.452 1.734 2.786 6.245 9.348 8.78 13.708 3.102 5.36 3.4 7.363 5.328 9.314 1.71 1.684 7.57 3.042 11.124.633 3.567-2.436 3.976-7.404 2.493-11.158-1.476-3.768-6.89-9.79-12.774-12.065-5.888-2.257-14.176-3.76-15.194-1.884m28.903-4.669c-.327.35-.485.967-.02 1.567 1.936 2.502 5.939 7.505 9.033 12.542 3.958 6.37 4.478 10.02 6.645 12.207 3.419 3.369 9.473 2.709 11.498.667 2.91-2.894 3.937-7.913 2.818-11.666-1.76-5.92-7.194-10.931-14.876-13.6-6.803-2.36-13.814-2.992-15.098-1.716m-30.886 23.464c3.228.542 5.326 12.99 2.125 24.08-2.642 9.106-8.903 13.208-15.85 11.666-5.388-1.208-7.205-5.987-5.536-11.54 1.449-4.828 5.9-8.506 9.07-11.564 3.234-3.145 7.096-8.464 7.973-10.982.333-.943.915-1.877 2.218-1.66m59.378 63.645v34.596c0 8.34-16.354 10.998-21.297 10.998-2.562 0-2.46-2.46-3.585-4.645-.952-1.818-3.88-4.354-20.122-5.603l-1.385-3.201h25.799l-.017-32.145h-58.116l-1.852-4.027h59.968V97.826l24.68 2.719c2.362 1.207-.515 5.126-4.073 6.62v6.328h31.458l11.173-12s13.359 9.98 15.486 12c2.102 2.018 0 4.027 0 4.027h-58.117z" fill="#231815"/><path d="M1000.188 67.474c0-.65-.374-1.192-.934-1.484h.015l-.091-.067-21.43-10.674-5.944 8.532-20.53-.092 23.899-21.096 6.703-.76c.937 0 1.669-.758 1.669-1.675 0-.708-.425-1.3-1.036-1.55l-24.671-8.84c-3.878 9.865-8.681 21.864-14.417 33.922H880.5l-.15 4.002 92.654.242-6.153 19.528 2.519.735 23.64-18.595 5.694-.45v-.042a1.65 1.65 0 001.484-1.636" fill="#231815"/><path d="M973.39 87.46v-.016l-20.521-13.366-6.044 6.37h-62.271l1.842 4.019h59.353l-11.396 18.335c1.884.392.265 3.779 3.493 4.362l28.34-17.12 6.054.469v-.034c.082 0 .15.034.217.034a1.668 1.668 0 00.933-3.052m-559.411 43.751c-10.077-4.452-17.982-10.098-23.723-16.935h25.82v6.103l19.983-2.968V76.104l4.595-2.143a2.09 2.09 0 001.305-1.942c0-.792-.464-1.484-1.118-1.843l-19.348-10.948-6.483 8.33h-25.99V52.84H449s1.93-2.32 0-4.17c-1.95-1.867-15.196-9.521-15.196-9.521l-8.555 9.522h-36.23l.018-9.74 5.873-1.85-.016-.033c.718-.193 1.255-.801 1.255-1.601 0-.81-.613-1.477-1.426-1.602l.016-.042-26.311-4.036v18.904h-59.84l1.718 4.169h58.122v14.716h-27.211l-19.053-7.295v60.118l19.99-2.968v-3.135l20.246-.016c-15.642 19.318-34.128 31.317-52.89 42.006h.018c-.4.217-.68.643-.68 1.119 0 .69.57 1.258 1.256 1.258.125 0 .254-.05.367-.075l.008.009c16.989-5.536 36.72-10.857 57.95-27.791v32.326l20.593-2.8v-40.267c3.1 6.563 6.669 10.74 10.697 15.19 8.994 10.392 21.534 16.963 37.802 23.04 2.63-8.162 6.137-14.45 12.328-16.384l1.01-1.585c-13.025-2.524-25.422-3.61-36.88-9.095m-45.552-20.962h-26.274V92.18h26.274zm0-22.064h-26.274v-16.6h26.274zm20.592-16.61h27.049V88.18h-27.05zm0 20.605h27.049v18.069h-27.05zm228.718-19.26v-.018L597.78 61.588l-6.483 8.346H529.85l-19.836-7.304v52.273l20.613-2.952v-3.426h19.96v41.14h-25.8l1.385 3.202c16.244 1.249 19.18 3.784 20.12 5.603 1.146 2.186 1.036 4.645 3.597 4.645 4.925 0 21.285-2.658 21.285-10.998v-43.591h21.188v5.786l20.597-2.962V78.864l4.604-2.16a2.096 2.096 0 001.309-1.95c-.001-.793-.452-1.468-1.136-1.834m-25.374 31.45h-61.735V73.929h61.735zm-219.729 99.85c.146 0 .275-.1.275-.331v-1.068c0-7.62 0-9.021-.078-10.622-.092-1.71-.484-2.493-2.055-2.852-.384-.11-1.197-.148-1.866-.148-.52 0-.816-.11-.816-.468 0-.326.35-.435 1.014-.435h12.878c.676 0 1.004.108 1.004.435 0 .358-.28.468-.85.468-.404 0-.82.039-1.384.148-1.297.25-1.676 1.102-1.776 2.852-.087 1.6-.087 28.033.155 30.192.134 1.4.417 2.503 1.85 2.719.685.093 1.727.192 2.428.192.537 0 .775.142.775.392 0 .356-.376.5-.955.5h-13.416c-.672 0-.998-.144-.998-.5 0-.25.196-.392.759-.392.718 0 1.297-.1 1.718-.192.947-.216 1.193-1.317 1.372-2.768.24-2.11.24-6.063.24-10.683v-4.402c0-.217-.127-.31-.274-.31h-18.227c-.138 0-.3.033-.3.31v4.402c0 4.62 0 8.572.267 10.73.125 1.402.417 2.504 1.843 2.72.684.093 1.726.192 2.427.192.546 0 .792.142.792.392 0 .356-.401.5-.971.5h-13.466c-.61 0-.938-.144-.938-.5 0-.25.179-.392.742-.392.726 0 1.296-.1 1.722-.192.959-.216 1.205-1.317 1.392-2.768.25-2.11.25-28.543.146-30.144-.104-1.71-.471-2.493-2.068-2.852-.366-.11-1.192-.148-1.86-.148-.513 0-.794-.11-.794-.468 0-.326.333-.435 1.007-.435h12.879c.67 0 1.006.108 1.006.435 0 .358-.29.468-.865.468-.391 0-.808.039-1.38.148-1.291.25-1.684 1.102-1.767 2.852-.113 1.6-.113 3.003-.113 10.622v1.068c0 .232.163.332.3.332h18.226zm58.294-23.303c-.138-2.276-.642-3.344-2.731-3.803-.513-.15-1.597-.225-2.493-.225-.692 0-1.088-.125-1.088-.594 0-.466.455-.607 1.4-.607h17.11c.968 0 1.418.142 1.418.607 0 .469-.383.594-1.021.594-.71 0-1.076.074-1.856.225-1.705.316-2.225 1.483-2.347 3.803-.13 2.126-.13 23.545-.13 23.545 0 9.69 1.847 13.768 4.97 16.427 2.852 2.478 5.783 2.77 7.959 2.77 2.793 0 6.225-.96 8.775-3.62 3.495-3.685 3.682-9.696 3.682-16.584 0 0 0-20.412-.113-22.538-.133-2.276-.646-3.344-2.747-3.803-.514-.15-1.597-.225-2.29-.225-.7 0-1.083-.125-1.083-.594 0-.466.453-.607 1.342-.607h14.563c.897 0 1.35.142 1.35.607 0 .469-.391.594-1.142.594-.708 0-1.113.074-1.854.225-1.726.316-2.227 1.483-2.355 3.803-.138 2.126-.138 21.328-.138 21.328 0 7.439-.684 15.318-6.046 20.13-4.515 4.075-9.101 4.818-13.216 4.818-3.373 0-9.493-.2-14.142-4.618-3.235-3.085-5.648-8.03-5.648-17.721 0 0 0-21.811-.13-23.937M652.1 192.198c-.101-1.71-.576-2.56-1.617-2.793-.535-.168-1.145-.207-1.737-.207-.474 0-.756-.11-.756-.502 0-.292.384-.4 1.157-.4h12.025c.617 0 1.016.108 1.016.4 0 .393-.316.502-.8.502-.466 0-.833.039-1.417.148-1.284.25-1.658 1.102-1.77 2.852-.1 1.6-.1 28.29.11 30.435.142 1.35.46 2.26 1.89 2.477.686.093 1.712.192 2.454.192.503 0 .768.142.768.392 0 .356-.4.5-.918.5h-13.456c-.616 0-.968-.144-.968-.5 0-.25.19-.392.766-.392.718 0 1.285-.1 1.718-.192.959-.216 1.25-1.076 1.392-2.518.243-2.103.243-28.793.143-30.394m62.519 21.012c0-2.7-.482-3.801-1.1-5.263-.317-.798-6.74-11.847-8.407-14.43-1.182-1.862-2.375-3.112-3.3-3.672-.618-.35-1.434-.647-2.003-.647-.366 0-.716-.11-.716-.468 0-.285.35-.435.919-.435h11.105c.492 0 .718.149.718.435 0 .308-.335.358-1.051.558a.926.926 0 00-.67.9c0 .426.252 1.017.583 1.708.67 1.502 7.356 13.577 8.107 15.003.482-1.22 6.503-12.234 7.17-13.811.468-1.073.65-1.941.65-2.6 0-.492-.183-1.06-1-1.252-.428-.091-.852-.2-.852-.507 0-.326.235-.435.819-.435h9.587c.518 0 .852.108.852.4 0 .342-.384.502-.9.502-.468 0-1.393.207-2.102.59-1.001.51-1.527 1.108-2.578 2.477-1.56 2-8.244 13.784-9.11 15.95-.727 1.785-.727 3.345-.727 4.996 0 0 0 7.02.158 9.13.1 1.45.515 2.553 1.94 2.769.687.093 1.728.192 2.397.192.516 0 .768.142.768.392 0 .356-.386.5-1.003.5h-13.265c-.676 0-1.053-.076-1.053-.5 0-.25.228-.392.759-.392.669 0 1.235-.1 1.668-.192.968-.216 1.384-1.317 1.485-2.768.152-2.11.152-9.13.152-9.13m29.451-5.953c0-8.59 5.388-19.686 19.694-19.686 11.892 0 19.28 7.278 19.28 18.77 0 11.506-7.64 20.562-19.757 20.562-13.681-.001-19.216-10.792-19.216-19.646m32.303.959c0-11.24-6.556-18.22-14.377-18.22-5.486 0-11.34 3.219-11.34 15.685 0 10.43 5.854 18.712 15.026 18.712 3.336 0 10.69-1.693 10.69-16.177m76.869-.959c0-8.59 5.379-19.686 19.703-19.686 11.882 0 19.278 7.278 19.278 18.77 0 11.506-7.637 20.562-19.754 20.562-13.698-.001-19.227-10.792-19.227-19.646m32.295.959c0-11.24-6.537-18.22-14.357-18.22-5.487 0-11.341 3.219-11.341 15.685 0 10.43 5.86 18.712 15.026 18.712 3.344 0 10.672-1.693 10.672-16.177m41.318-19.018c.557 0 1.358.298 1.99.647.902.56 2.1 1.81 3.287 3.672 1.683 2.583 8.069 13.632 8.402 14.43.626 1.462 1.102 2.563 1.102 5.264 0 0 0 7.02-.15 9.13-.092 1.45-.516 2.553-1.477 2.769a7.735 7.735 0 01-1.668.192c-.524 0-.766.142-.766.392 0 .424.386.5 1.06.5h13.274c.599 0 .993-.144.993-.5 0-.25-.26-.392-.777-.392-.667 0-1.718-.1-2.366-.192-1.454-.216-1.877-1.317-1.96-2.768-.16-2.11-.16-9.131-.16-9.131 0-1.651 0-3.211.718-4.995.868-2.167 7.555-13.951 9.123-15.951 1.05-1.368 1.584-1.967 2.585-2.476.716-.384 1.608-.591 2.103-.591.516 0 .897-.16.897-.502 0-.292-.333-.4-.867-.4h-9.588c-.585 0-.815.108-.815.435 0 .308.424.416.849.507.818.193 1.033.76 1.033 1.252 0 .658-.215 1.526-.683 2.6-.67 1.576-6.688 12.592-7.156 13.81-.766-1.425-7.453-13.5-8.104-15.002-.352-.691-.574-1.282-.574-1.708 0-.4.223-.783.657-.9.702-.2 1.035-.25 1.035-.558 0-.285-.217-.435-.718-.435h-21.888c-.525 0-.766.108-.766.435 0 .308.19.416.606.507.484.109.684.468.684 1.009 0 .844-1.05 2.11-2.384 3.753-1.385 1.718-8.337 9.18-9.98 11.04h-.226v-2.22c0-7.618 0-9.02.083-10.621.1-1.75.484-2.602 1.786-2.852.556-.11.849-.148 1.324-.148.375 0 .659-.11.659-.468 0-.326-.326-.435-1.001-.435h-12.455c-.71 0-1.052.108-1.052.435 0 .358.3.468.818.468.666 0 1.466.039 1.875.148 1.55.358 1.943 1.143 2.025 2.852.11 1.6.11 28.033-.141 30.144-.192 1.45-.416 2.552-1.373 2.768a7.979 7.979 0 01-1.721.192c-.558 0-.766.142-.766.392 0 .356.333.5.969.5h12.873c.516 0 .916-.144.916-.5 0-.25-.25-.392-.625-.392-.626 0-1.678-.1-2.325-.192-1.22-.216-1.644-1.317-1.734-2.72-.135-2.158-.135-6.11-.135-10.73v-4.568h.226l.526.766c1.007 1.443 10.388 13.017 12.507 14.993 2.05 1.909 3.342 3.01 5.91 3.268 1.009.077 1.862.077 3.295.077h4.16c.907 0 1.158-.145 1.158-.501 0-.284-.298-.392-.635-.392-.573 0-1.533-.151-2.976-.743-2.56-1.067-4.702-3.32-6.804-5.428-1.858-1.844-11.232-12.432-12.95-14.792 1.627-1.81 8.84-9.33 10.323-10.821 2.053-2.146 3.67-3.163 5.154-3.78.903-.336 2.104-.543 2.78-.543" fill="#231815"/><path d="M959.13 207.257c0-8.59 5.396-19.686 19.72-19.686 11.9 0 19.287 7.278 19.287 18.77 0 11.506-7.646 20.562-19.762 20.562-13.71-.001-19.244-10.792-19.244-19.646m32.319.959c0-11.24-6.537-18.22-14.376-18.22-5.486 0-11.348 3.219-11.348 15.685 0 10.43 5.879 18.712 15.033 18.712 3.346 0 10.69-1.693 10.69-16.177m-358.977 22.313c-4.254-.284-8.14-1.535-11.467-4.854-3.201-3.208-8.764-11.055-11.964-17.117 4.835-4.12 6.319-7.545 6.319-11.24 0-3.352-1.908-5.945-3.26-6.87-2.568-1.86-5.77-2.151-8.78-2.151h-13.291c-.726 0-1.044.108-1.044.435 0 .358.283.468.81.468.685 0 1.469.039 1.885.148 1.552.358 1.927 1.143 2.035 2.852.092 1.6.092 3.003.092 10.622v8.839c0 4.62 0 8.572-.242 10.683-.185 1.45-.415 2.552-1.375 2.768a7.873 7.873 0 01-1.71.192c-.584 0-.784.142-.784.392 0 .356.334.5.958.5h12.852c.616 0 .948-.144.948-.5 0-.25-.198-.392-.558-.392-.575 0-1.625-.1-2.345-.192-1.432-.216-1.717-1.317-1.865-2.768-.218-2.11-.218-6.063-.218-10.74v-.702c0-.282.117-.39.366-.39l4.137.107c.35 0 .7 0 .876.342.575 1.116 2.918 6.746 5.097 10.174 2.107 3.375 4.175 6.094 6.353 7.813 2.633 2.067 5.259 2.867 8.513 3.158 4.145.375 6.995 0 7.804-.241.692-.174 1.51-.41 1.51-.926-.002-.542-.812-.342-1.652-.41m-25.583-23.181c-.858.65-1.467.868-3.384.868-1.184 0-2.638-.166-3.628-.526-.335-.143-.41-.342-.41-.884v-15.26c0-.398.075-.59.41-.69.483-.158 1.343-.191 2.534-.191 2.81 0 7.314 2.019 7.314 9.164 0 4.102-1.402 6.418-2.836 7.519m-266.404-19.41c-.213 0-.596.2-1.297.342h-26.97c-1.187-.093-1.666-.708-2.05-.708-.302 0-.427.315-.572.975-.105.492-1.077 5.937-1.077 5.937h.01a.51.51 0 00.487.634.542.542 0 00.475-.308v-.043c.154-.408.438-1.248.872-2.036.718-1.074 1.856-1.357 4.627-1.434h7.105s0 28.936-.23 31.046c-.145 1.45-.428 2.552-1.392 2.768-.426.093-1 .192-1.718.192-.563 0-.767.142-.767.392 0 .356.35.5.954.5h13.516c.523 0 .906-.144.906-.5 0-.25-.238-.392-.768-.392-.717 0-1.76-.1-2.425-.192-1.443-.216-1.73-1.317-1.868-2.72-.23-2.158-.23-31.094-.23-31.094h6c4.236.103 5.498 1.478 5.587 2.779l.108 1.024c0 .292.233.525.503.525a.519.519 0 00.52-.525s.064-5.438.064-6.12c.018-.741-.052-1.042-.37-1.042m356.517 0c-.21 0-.585.2-1.293.342h-26.965c-1.185-.093-1.67-.708-2.054-.708-.284 0-.433.315-.573.975-.11.492-1.07 5.937-1.07 5.937 0 .033-.014.076-.014.116 0 .284.223.518.525.518a.49.49 0 00.433-.308h.016v-.043c.168-.408.433-1.248.877-2.036.708-1.074 1.86-1.357 4.608-1.434h7.114s0 28.936-.226 31.046c-.15 1.45-.416 2.552-1.385 2.768a7.733 7.733 0 01-1.716.192c-.577 0-.752.142-.752.392 0 .356.318.5.95.5h13.51c.517 0 .908-.144.908-.5 0-.25-.258-.392-.778-.392-.713 0-1.763-.1-2.415-.192-1.444-.216-1.744-1.317-1.87-2.72-.24-2.158-.24-31.094-.24-31.094h6.006c4.252.103 5.494 1.478 5.577 2.779l.125 1.024c0 .292.227.525.49.525a.51.51 0 00.518-.525s.076-5.438.076-6.12c.008-.741-.04-1.042-.382-1.042M859.69 175.18c-.27 0-.77.252-1.721.476h-36.011c-1.594-.144-2.236-.942-2.762-.942-.367 0-.55.416-.742 1.269-.132.657-1.443 7.928-1.443 7.928l.036.017a.221.221 0 00-.051.149c0 .359.317.686.69.686a.685.685 0 00.608-.393h.027v-.031s0-.028.006-.028c.2-.558.569-1.683 1.137-2.7.967-1.468 2.493-1.81 6.185-1.943h9.498s0 38.63-.325 41.44c-.182 1.938-.566 3.419-1.851 3.687-.55.126-1.316.26-2.283.26-.753 0-1.01.215-1.01.533 0 .49.435.692 1.274.692h18.02c.699 0 1.209-.202 1.209-.692 0-.318-.315-.533-1.018-.533-.96 0-2.351-.134-3.234-.26-1.935-.268-2.31-1.75-2.502-3.61-.318-2.886-.318-41.517-.318-41.517h8.03c5.653.134 7.314 1.96 7.447 3.712l.168 1.368c0 .374.284.657.666.657.385 0 .684-.283.684-.657 0 0 .067-7.272.082-8.157 0-1.01-.045-1.41-.496-1.41m-449.093 43.866c0-.3-.225-.51-.495-.51a.503.503 0 00-.506.418c-.446 2.05-1.63 3.345-2.876 3.962-1.23.6-3.227.6-4.475.6-4.875 0-4.984-.626-5.081-4.077-.05-1.467 0-11.75 0-11.75 0-.282.042-.5.283-.5 1.143 0 5.875.067 6.78.158 1.769.199 2.443.936 2.673 1.952.129.65.084 1.258.075 1.767 0 .285.233.518.513.518a.507.507 0 00.513-.467v-.05l.65-7.328v-.058a.508.508 0 00-.505-.52.504.504 0 00-.4.234c-.02.042-.054.06-.071.077v.016c-.05.059-.13.192-.245.34-.446.51-1.164.65-2.306.76-1.085.109-6.583.109-7.626.109-.292 0-.333-.218-.333-.576v-12.684c0-.348.097-.481.333-.481.955 0 5.979.082 6.77.19 2.402.29 2.869.902 3.195 1.802.237.602.212 1.65.212 2.01 0 .268.25.5.52.5a.512.512 0 00.514-.45c.075-.684.563-6.353.563-6.68 0-.224-.042-.441-.271-.441-.241 0-.53.134-.771.218-.383.082-1.151.175-2.056.175-.912 0-17.506.017-18.793.017-.726 0-1.043.108-1.043.435 0 .358.284.468.806.468.662 0 1.477.039 1.85.148 1.589.358 1.958 1.143 2.06 2.852.084 1.6.084 28.033-.136 30.144-.197 1.45-.445 2.552-1.392 2.768a7.887 7.887 0 01-1.72.192c-.57 0-.766.142-.766.392 0 .356.342.5.959.5h19.236c1.809 0 2.356.19 2.586-1.142.153-1.02.778-5.903.778-5.903l-.008-.018c-.002-.02.006-.054.006-.087m153.183-29.849c.659 0 1.484.039 1.85.148 1.578.358 1.954 1.143 2.068 2.852.067 1.6.067 28.033-.168 30.144-.182 1.45-.414 2.552-1.364 2.768a8.186 8.186 0 01-1.727.192c-.576 0-.767.142-.767.392 0 .356.333.5.94.5h19.26c1.812 0 2.355.19 2.572-1.142.183-1.02.8-5.903.8-5.903l-.02-.018c0-.016.02-.051.02-.084a.5.5 0 00-.502-.51.485.485 0 00-.5.418c-.468 2.05-1.634 3.345-2.868 3.962-1.242.6-3.251.6-4.503.6-4.861 0-4.985-.626-5.07-4.077-.064-1.467 0-11.75 0-11.75 0-.282.052-.5.286-.5 1.116 0 5.859.067 6.77.158 1.768.199 2.435.936 2.694 1.952.123.65.074 1.258.065 1.767 0 .285.234.518.509.518a.503.503 0 00.506-.467v-.023c0-.027.013-.027.013-.027l.666-7.328h-.01c0-.017.01-.043.01-.058a.528.528 0 00-.52-.52.51.51 0 00-.414.234c-.02.042-.034.06-.06.077l-.017.016c-.041.059-.108.192-.242.34-.433.51-1.143.65-2.285.76-1.093.109-6.588.109-7.637.109-.283 0-.335-.218-.335-.576v-12.684c0-.348.085-.481.335-.481.942 0 5.953.082 6.77.19 2.386.29 2.868.902 3.185 1.802.252.602.228 1.65.228 2.01 0 .268.24.5.525.5.25 0 .467-.191.507-.45.093-.684.559-6.353.559-6.68 0-.224-.032-.441-.284-.441-.223 0-.5.134-.746.218-.402.082-1.152.175-2.063.175l-28.781.017c-.91 0-1.346.108-1.346.483 0 .367.4.419.819.419.607 0 1.35.039 1.908.232.435.166.609.566.609.975 0 .45-.175 1.209-.416 1.859-1.151 3.303-7.356 19.444-9.397 24.974h-.193l-8.22-22.772c-.67-1.816-1.084-3.227-1.084-3.852 0-.477.116-.825.467-1.066.382-.311 1.1-.35 1.877-.35.407 0 .717-.11.717-.468 0-.326-.543-.435-1.095-.435h-37.29c-.715 0-1.236.033-1.236.435 0 .308.188.468.775.468.667 0 1.798 0 2.52.298 1.143.5 1.592 1.46 1.649 4.503l.45 22.53h-.228c-.83-.791-24.736-27.766-25.3-28.408-.812-.91-1.254-1.551-1.76-1.551-.495 0-.632.675-.632 1.677l-.435 30.593c-.041 4.368-.237 5.81-1.476 6.212-.667.19-1.522.25-2.151.25-.48 0-.772.107-.772.392 0 .474.439.5 1.06.5h11.073c.675 0 1.105-.076 1.105-.5 0-.284-.293-.392-.814-.392-.758 0-1.664-.06-2.492-.342-.955-.36-1.572-1.66-1.655-5.586l-.53-21.938h.146c.84.966 22.438 25.905 25.44 28.909.532.54 1.1 1.107 1.625 1.107.417 0 .607-.458.607-1.56l.526-32.293c.052-2.811.442-3.862 1.769-4.253.592-.148 1.276-.148 1.744-.148.565 0 1.616.039 2.132.207 1.068.233 1.536 1.084 1.637 2.793.064 1.6.064 28.29-.158 30.394-.144 1.44-.41 2.302-1.386 2.518a7.952 7.952 0 01-1.71.192c-.574 0-.783.142-.783.392 0 .356.35.5.958.5h13.476c.526 0 .908-.144.908-.5 0-.25-.251-.392-.766-.392-.725 0-1.76-.1-2.437-.192-1.435-.216-1.782-1.126-1.906-2.477-.194-2.144-.194-28.834-.094-30.435.094-1.75.458-2.602 1.75-2.852a7.176 7.176 0 011.437-.148c.38 0 .898 0 1.606.207 1.719.474 2.53 1.043 3.629 3.81l12.022 30.643c.925 2.337 1.203 3.045 1.82 3.045.674 0 .95-.785 2.199-3.694 1.05-2.502 10.213-24.197 12.073-28.9 1.284-3.218 2.003-4.062 2.618-4.52.87-.593 1.874-.593 2.356-.593m230.712 17.951c1.143 0 5.86.04 6.777.142 1.785.2 2.435.992 2.685 2.009.128.65.084 1.258.05 1.767 0 .285.252.518.526.518.284 0 .475-.191.51-.467v-.05l.684-7.328h-.018c0-.017.018-.043.018-.058a.533.533 0 00-.524-.52.513.513 0 00-.418.234c-.027.042-.027.06-.06.077 0 0-.015 0-.015.016a2.564 2.564 0 01-.241.34c-.428.51-1.145.65-2.294.76-1.101.109-6.613.109-7.68.109-.292 0-.326-.166-.326-.477v-12.514c0-.56.149-.718.418-.718l7.353.158c1.828.058 2.684.816 3.02 1.502.29.715.315 1.816.315 2.233a.52.52 0 00.52.509c.25 0 .458-.19.499-.433h.008v-.076s.66-6.23.66-6.554c0-.225-.151-.442-.332-.442-.252 0-.485.218-.768.3-.486.143-1.07.093-1.97.093-1.084 0-18.227.017-19.48.017-.698 0-1.082.108-1.082.483 0 .31.333.419.799.419.685 0 1.493.039 1.878.148 1.594.358 1.958 1.143 2.05 2.852.092 1.6.092 28.033-.141 30.144-.201 1.45-.434 2.552-1.385 2.768a8.075 8.075 0 01-1.718.192c-.541 0-.716.142-.716.392 0 .424.315.5.999.5h13.317c.724 0 1.042-.144 1.042-.5 0-.25-.184-.392-.817-.392-.667 0-1.702-.1-2.376-.192-1.424-.216-1.71-1.317-1.86-2.768-.233-2.11-.233-14.742-.233-14.742 0-.343.085-.451.326-.451" fill="#231815"/><path d="M636.864 203.347l-1.351-1.077c-3.942-3.15-5.052-4.895-5.052-7.22 0-3.001 2.15-5.171 5.687-5.171 3.09 0 4.478 1.493 5.212 2.479.993 1.3 1.225 2.844 1.225 3.317 0 .2.009.35.049.482a.671.671 0 00.066.168c0 .018.01.018.01.018a.309.309 0 00.135.14v.018a.46.46 0 00.314.118.52.52 0 00.512-.518l.089-6.68c.018-.166.018-.301.018-.383 0-.342-.251-.492-.666-.593-1.234-.341-3.235-.874-6.355-.874-6.638 0-11.023 3.975-11.023 9.505 0 4.052 1.819 7.57 7.072 11.882l2.183 1.792c3.97 3.219 4.688 5.562 4.688 8.038 0 2.65-2.103 5.72-6.404 5.72-2.968 0-5.77-1.36-6.818-5.068-.236-.85-.435-1.91-.435-2.57 0-.123-.02-.265-.032-.391v-.025c0-.265-.234-.476-.512-.476-.283 0-.523.21-.523.476l-.218 7.439c0 1.115.134 1.35.918 1.709 2.044.968 4.176 1.3 6.962 1.3 2.537 0 5.195-.451 7.58-2.05 3.452-2.368 4.485-5.805 4.485-8.74-.002-4.76-2.095-8.113-7.816-12.765" fill="#231815"/></svg>