<?xml version="1.0" standalone="no"?>
<!DOCTYPE svg PUBLIC "-//W3C//DTD SVG 20010904//EN"
 "http://www.w3.org/TR/2001/REC-SVG-20010904/DTD/svg10.dtd">
<svg version="1.0" xmlns="http://www.w3.org/2000/svg"
 width="393.000000pt" height="128.000000pt" viewBox="0 0 393.000000 128.000000"
 preserveAspectRatio="xMidYMid meet">

<g transform="translate(0.000000,128.000000) scale(0.100000,-0.100000)"
fill="#000000" stroke="none">
<path d="M187 1264 c-4 -4 -7 -38 -7 -76 l0 -68 35 0 36 0 -3 73 c-3 69 -4 72
-28 75 -14 2 -29 0 -33 -4z"/>
<path d="M302 1258 c-8 -8 -12 -52 -12 -130 l0 -118 40 0 40 0 0 118 c0 120
-6 142 -40 142 -9 0 -21 -5 -28 -12z"/>
<path d="M417 1264 c-4 -4 -7 -38 -7 -76 l0 -68 35 0 36 0 -3 73 c-3 69 -4 72
-28 75 -14 2 -29 0 -33 -4z"/>
<path d="M3598 1233 c-42 -17 -45 -24 -23 -43 13 -10 15 -51 15 -250 0 -261 3
-250 -61 -250 -61 0 -82 50 -77 185 l3 80 43 3 c53 4 52 26 -1 30 -36 3 -37 4
-37 43 0 48 -16 50 -36 4 -8 -20 -28 -42 -47 -52 l-32 -17 25 -6 c25 -6 25 -7
28 -127 3 -118 3 -123 29 -143 23 -18 40 -20 149 -20 70 0 124 4 124 9 0 5
-10 11 -22 13 -22 3 -23 7 -26 120 -3 117 -3 117 24 135 37 24 94 20 116 -8
16 -19 18 -38 16 -133 -3 -107 -4 -111 -25 -114 -13 -2 -23 -8 -23 -13 0 -5
39 -9 87 -9 52 0 83 4 78 9 -6 5 -19 11 -30 13 -18 3 -20 13 -25 130 -4 112
-7 130 -26 149 -31 31 -92 35 -148 11 l-46 -21 0 145 c0 79 -3 144 -7 143 -5
-1 -25 -8 -45 -16z"/>
<path d="M3768 1220 c2 -16 5 -30 7 -30 2 0 5 14 7 30 3 19 0 30 -7 30 -7 0
-10 -11 -7 -30z"/>
<path d="M3810 1225 c1 -26 2 -28 11 -12 8 14 8 22 0 30 -8 8 -11 3 -11 -18z"/>
<path d="M3857 1243 c-3 -5 -1 -17 4 -28 7 -17 8 -17 8 8 1 27 -4 34 -12 20z"/>
<path d="M3250 1233 c-8 -3 -26 -10 -39 -15 l-24 -9 22 -22 c20 -22 21 -32 21
-245 0 -212 -1 -223 -21 -243 -17 -17 -28 -20 -57 -14 -60 11 -62 16 -62 144
0 130 -9 154 -58 164 -42 9 -97 -9 -137 -45 -38 -33 -45 -58 -17 -58 24 0 39
12 43 35 2 10 16 26 30 34 24 13 29 13 52 -2 32 -20 47 -82 26 -101 -8 -7 -45
-25 -82 -41 -70 -29 -87 -46 -87 -89 0 -58 68 -83 132 -50 25 13 36 14 50 5
23 -14 302 -15 293 -1 -3 6 -15 10 -25 10 -29 0 -32 40 -28 309 2 157 -1 241
-7 240 -5 0 -17 -3 -25 -6z m-220 -463 c0 -42 -4 -52 -26 -66 -36 -24 -78 -9
-82 29 -4 34 11 54 52 72 51 22 56 19 56 -35z"/>
<path d="M1382 1177 c-18 -78 -16 -82 26 -37 38 39 40 40 110 40 l72 0 0 -234
c0 -251 1 -244 -55 -264 -24 -8 -6 -10 90 -10 101 0 115 2 85 11 -19 6 -38 16
-42 21 -4 6 -8 116 -8 244 l0 232 64 0 c83 0 114 -12 127 -50 16 -45 29 -36
29 19 0 27 3 57 7 67 6 17 5 17 -17 1 -21 -15 -53 -17 -225 -17 -161 0 -205 3
-221 15 -10 8 -21 15 -24 15 -3 0 -11 -24 -18 -53z"/>
<path d="M783 1198 c-2 -5 7 -8 20 -8 47 0 52 -19 57 -224 5 -180 6 -193 29
-230 47 -75 183 -103 281 -59 86 38 108 88 111 243 1 58 4 139 8 180 6 74 6
75 39 85 17 5 32 12 32 15 0 3 -40 5 -90 5 -49 0 -90 -3 -90 -7 0 -5 9 -8 19
-8 43 0 51 -34 51 -205 0 -147 -2 -165 -22 -205 -60 -118 -216 -123 -282 -10
-17 29 -21 56 -24 187 -6 193 -1 222 39 230 16 3 29 8 29 12 0 9 -201 7 -207
-1z"/>
<path d="M1920 1198 c0 -5 9 -8 19 -8 45 0 51 -30 51 -255 0 -115 -4 -216 -9
-224 -5 -8 -22 -20 -38 -27 -25 -11 -15 -12 82 -13 74 0 105 2 95 9 -8 5 -23
10 -32 10 -30 0 -39 36 -36 138 l3 97 158 3 158 3 -3 -113 -3 -113 -35 -17
-35 -17 110 0 c103 0 112 4 53 23 -17 5 -18 25 -18 242 l0 236 30 11 c17 6 30
14 30 17 0 7 -190 4 -197 -4 -4 -3 3 -6 15 -6 43 0 53 -25 50 -129 l-3 -96
-155 0 -155 0 -3 89 c-3 98 11 136 50 136 12 0 19 3 15 6 -8 9 -197 11 -197 2z"/>
<path d="M20 1085 c-6 -8 -10 -22 -8 -32 3 -16 17 -18 131 -21 l127 -3 0 36 0
35 -119 0 c-91 0 -121 -3 -131 -15z"/>
<path d="M390 1065 l0 -36 128 3 c125 3 127 3 130 27 2 13 -2 28 -10 32 -7 5
-66 9 -130 9 l-118 0 0 -35z"/>
<path d="M180 945 l0 -55 35 0 35 0 0 55 0 55 -35 0 -35 0 0 -55z"/>
<path d="M410 945 l0 -55 35 0 35 0 0 55 0 55 -35 0 -35 0 0 -55z"/>
<path d="M2610 978 c-112 -57 -121 -252 -14 -303 69 -32 182 -4 192 49 3 16 1
16 -26 -4 -65 -48 -171 5 -187 94 -12 63 -8 66 109 66 115 0 123 4 100 58 -9
21 -26 38 -48 47 -48 20 -74 19 -126 -7z m94 -10 c27 -11 42 -40 31 -58 -6
-10 -155 -15 -155 -4 0 16 24 45 48 58 33 19 44 19 76 4z"/>
<path d="M28 979 c-21 -12 -23 -40 -6 -57 7 -7 38 -12 70 -12 l58 0 0 40 0 40
-52 0 c-29 0 -61 -5 -70 -11z"/>
<path d="M278 950 l-4 -40 53 0 53 0 0 40 0 40 -49 0 -49 0 -4 -40z"/>
<path d="M508 950 l-4 -40 61 0 c63 0 85 11 85 42 0 25 -31 38 -88 38 l-50 0
-4 -40z"/>
<path d="M290 776 c0 -63 3 -121 6 -130 4 -9 18 -16 34 -16 16 0 30 7 34 16 3
9 6 67 6 130 l0 114 -40 0 -40 0 0 -114z"/>
<path d="M22 861 c-8 -4 -12 -19 -10 -32 3 -24 5 -24 130 -27 l128 -3 0 36 0
35 -117 0 c-65 0 -124 -4 -131 -9z"/>
<path d="M390 835 l0 -36 128 3 c125 3 127 3 130 27 2 13 -2 28 -10 32 -7 5
-66 9 -130 9 l-118 0 0 -35z"/>
<path d="M182 708 l3 -73 30 0 30 0 3 73 3 72 -36 0 -36 0 3 -72z"/>
<path d="M412 708 l3 -73 30 0 30 0 3 73 3 72 -36 0 -36 0 3 -72z"/>
<path d="M880 405 c0 -9 9 -15 25 -15 24 0 25 -2 25 -74 0 -73 0 -73 25 -68
24 4 25 8 25 73 0 67 1 69 25 69 16 0 25 6 25 15 0 12 -15 15 -75 15 -60 0
-75 -3 -75 -15z"/>
<path d="M1060 335 c0 -77 2 -85 19 -85 16 0 20 8 23 43 4 60 31 58 38 -3 4
-34 9 -45 23 -46 14 -2 17 7 17 51 0 60 -16 81 -55 71 -23 -6 -25 -3 -25 24 0
23 -4 30 -20 30 -18 0 -20 -7 -20 -85z"/>
<path d="M1450 346 c0 -88 11 -101 80 -101 69 0 80 13 80 101 0 67 -2 74 -20
74 -18 0 -20 -7 -20 -59 0 -41 -5 -65 -16 -75 -38 -38 -64 -6 -64 78 0 49 -2
56 -20 56 -18 0 -20 -7 -20 -74z"/>
<path d="M1810 405 c0 -9 9 -15 25 -15 16 0 25 6 25 15 0 9 -9 15 -25 15 -16
0 -25 -6 -25 -15z"/>
<path d="M2440 405 c0 -9 9 -15 25 -15 16 0 25 6 25 15 0 9 -9 15 -25 15 -16
0 -25 -6 -25 -15z"/>
<path d="M3042 408 c-7 -7 -12 -20 -12 -29 0 -10 -6 -20 -12 -23 -10 -5 -10
-7 0 -12 7 -3 12 -24 12 -49 0 -34 4 -44 20 -48 18 -5 20 0 20 38 0 31 5 47
18 54 16 9 16 11 -2 24 -19 14 -19 15 2 26 12 6 22 16 22 21 0 14 -54 12 -68
-2z"/>
<path d="M3170 406 c0 -9 12 -16 28 -18 26 -3 27 -5 30 -70 3 -59 5 -68 22
-68 17 0 19 9 22 68 3 65 4 67 31 70 15 2 27 9 27 18 0 11 -17 14 -80 14 -63
0 -80 -3 -80 -14z"/>
<path d="M2533 374 c-18 -18 -24 -28 -15 -31 6 -3 12 -21 12 -42 0 -20 5 -42
12 -49 17 -17 58 -15 58 3 0 8 -4 15 -10 15 -15 0 -12 67 3 74 10 5 10 7 0 12
-7 3 -13 14 -13 25 0 26 -14 24 -47 -7z"/>
<path d="M1244 360 c-45 -18 -37 -104 11 -116 33 -8 71 2 79 21 6 17 -20 20
-44 5 -9 -5 -19 -5 -27 2 -20 17 -5 28 38 28 32 0 39 3 39 19 0 22 -35 51 -60
50 -8 0 -25 -4 -36 -9z m54 -28 c2 -7 -6 -12 -17 -12 -21 0 -27 11 -14 24 9 9
26 2 31 -12z"/>
<path d="M1683 363 c-33 -4 -33 -4 -33 -63 0 -49 3 -58 18 -56 13 1 18 12 22
46 4 32 10 46 23 48 14 3 17 -4 17 -42 0 -42 2 -46 25 -46 23 0 25 4 25 44 0
48 -19 77 -48 74 -9 0 -32 -3 -49 -5z"/>
<path d="M2070 363 c-66 -24 -42 -123 29 -123 35 0 76 33 48 38 -9 2 -25 -1
-35 -7 -15 -8 -23 -7 -31 3 -15 18 -4 26 41 26 31 0 38 4 38 19 0 35 -49 59
-90 44z m48 -31 c2 -7 -6 -12 -17 -12 -21 0 -27 11 -14 24 9 9 26 2 31 -12z"/>
<path d="M2228 363 l-38 -4 0 -55 c0 -51 1 -54 25 -54 22 0 25 4 25 36 0 27 5
37 20 41 18 5 30 45 13 41 -5 -1 -25 -3 -45 -5z"/>
<path d="M2316 357 c-27 -20 -16 -50 22 -61 43 -12 41 -29 -3 -20 -28 5 -35 3
-35 -10 0 -9 12 -19 26 -22 71 -18 115 50 47 71 -44 12 -42 28 2 19 39 -7 48
8 16 26 -27 14 -54 13 -75 -3z"/>
<path d="M2890 363 c-44 -16 -54 -82 -18 -107 66 -47 152 25 106 87 -14 18
-64 30 -88 20z m50 -58 c0 -28 -4 -35 -19 -35 -10 0 -21 6 -24 14 -10 24 4 56
24 56 15 0 19 -7 19 -35z"/>
<path d="M3358 363 c-9 -2 -21 -17 -27 -32 -16 -38 0 -78 35 -87 31 -8 75 5
82 24 5 15 -30 16 -46 0 -8 -8 -15 -8 -26 2 -23 18 -10 30 35 30 32 0 39 3 39
19 0 35 -45 57 -92 44z m50 -31 c2 -7 -6 -12 -17 -12 -21 0 -27 11 -14 24 9 9
26 2 31 -12z"/>
<path d="M3648 359 c-24 -13 -23 -29 2 -29 11 0 20 5 20 10 0 6 7 10 15 10 8
0 15 -7 15 -15 0 -10 -10 -15 -28 -15 -34 0 -52 -16 -52 -47 0 -25 2 -26 72
-27 l48 -1 0 52 c0 41 -4 54 -19 63 -25 13 -51 12 -73 -1z m52 -74 c0 -8 -9
-15 -20 -15 -20 0 -26 11 -13 23 12 13 33 7 33 -8z"/>
<path d="M3798 363 c-27 -7 -32 -36 -8 -55 12 -10 28 -18 36 -18 8 0 14 -5 14
-10 0 -7 -13 -8 -36 -4 -29 5 -36 4 -32 -7 6 -19 50 -33 80 -26 48 12 46 61
-3 72 -43 10 -48 28 -5 20 40 -8 50 7 17 25 -20 10 -33 11 -63 3z"/>
<path d="M1810 306 c0 -49 2 -54 25 -58 24 -5 25 -4 25 53 0 56 -1 59 -25 59
-24 0 -25 -3 -25 -54z"/>
<path d="M1903 305 c19 -48 25 -55 50 -55 15 0 27 2 27 5 0 2 9 27 20 55 l20
51 -22 -3 c-15 -2 -24 -13 -30 -36 -10 -38 -23 -35 -31 8 -5 23 -12 30 -31 30
l-24 0 21 -55z"/>
<path d="M2440 305 c0 -52 1 -55 25 -55 24 0 25 3 25 55 0 52 -1 55 -25 55
-24 0 -25 -3 -25 -55z"/>
<path d="M2630 356 c0 -3 9 -29 21 -58 12 -30 18 -62 14 -76 -5 -20 -2 -23 16
-20 17 2 28 20 50 78 16 41 29 76 29 77 0 2 -9 3 -19 3 -13 0 -21 -9 -26 -30
-9 -43 -23 -46 -33 -8 -6 23 -15 34 -30 36 -12 2 -22 1 -22 -2z"/>
<path d="M3480 355 c0 -3 5 -14 12 -24 12 -19 11 -22 -20 -83 -6 -13 43 6 54
21 10 13 12 12 18 -5 4 -12 15 -19 31 -19 14 0 24 2 22 5 -27 48 -30 63 -19
81 7 10 12 21 12 24 0 11 -39 4 -44 -7 -5 -10 -7 -10 -12 0 -5 11 -54 18 -54
7z"/>
<path d="M890 60 c0 -47 3 -60 15 -60 9 0 15 9 15 25 0 20 5 25 25 25 20 0 25
-5 25 -25 0 -16 6 -25 15 -25 12 0 15 13 15 60 0 45 -3 60 -14 60 -8 0 -16
-10 -18 -22 -2 -15 -10 -23 -23 -23 -13 0 -21 8 -23 23 -2 12 -10 22 -18 22
-11 0 -14 -15 -14 -60z"/>
<path d="M1230 60 c0 -47 3 -60 15 -60 12 0 15 13 15 60 0 47 -3 60 -15 60
-12 0 -15 -13 -15 -60z"/>
<path d="M1362 63 c3 -62 25 -85 30 -32 4 46 28 50 28 5 0 -25 4 -36 15 -36
11 0 15 11 15 39 0 40 -16 56 -45 45 -10 -4 -15 0 -15 15 0 12 -6 21 -15 21
-13 0 -15 -11 -13 -57z"/>
<path d="M1531 107 c-17 -21 -3 -45 30 -52 29 -7 37 -19 19 -30 -5 -3 -18 0
-29 7 -27 16 -41 0 -17 -18 26 -19 55 -18 77 2 23 21 10 49 -26 58 -37 9 -32
29 6 21 24 -6 30 -4 27 6 -6 19 -72 23 -87 6z"/>
<path d="M1750 110 c0 -5 7 -10 15 -10 8 0 15 5 15 10 0 6 -7 10 -15 10 -8 0
-15 -4 -15 -10z"/>
<path d="M2294 112 c-18 -12 -25 -48 -15 -75 14 -35 53 -45 89 -21 23 15 24
19 9 22 -10 2 -24 -2 -32 -8 -21 -18 -35 -3 -35 36 l0 36 42 -7 c39 -7 41 -6
29 9 -14 16 -67 22 -87 8z"/>
<path d="M3150 60 c0 -47 3 -60 15 -60 9 0 15 9 15 25 0 33 37 36 42 3 2 -12
9 -23 16 -26 9 -3 12 13 12 57 0 48 -3 61 -15 61 -9 0 -15 -9 -15 -25 0 -18
-5 -25 -20 -25 -15 0 -20 7 -20 25 0 16 -6 25 -15 25 -12 0 -15 -13 -15 -60z"/>
<path d="M1296 91 c-11 -12 -14 -21 -7 -26 6 -3 11 -19 11 -36 0 -22 5 -29 20
-29 23 0 26 10 8 28 -9 9 -10 17 -1 30 8 13 8 22 -2 35 -11 16 -13 16 -29 -2z"/>
<path d="M2630 91 c-14 -11 -20 -20 -13 -21 6 0 13 -15 15 -32 2 -25 8 -34 26
-36 12 -2 22 1 22 7 0 6 -4 11 -10 11 -5 0 -10 11 -10 25 0 14 6 25 13 25 8 0
9 3 1 8 -6 4 -13 13 -15 20 -4 11 -11 9 -29 -7z"/>
<path d="M3038 96 c-24 -23 -9 -90 20 -94 12 -2 22 1 22 7 0 6 -4 11 -10 11
-13 0 -13 47 -1 52 5 2 4 11 -4 21 -11 16 -15 16 -27 3z"/>
<path d="M3605 90 c-10 -11 -13 -20 -7 -20 7 0 12 -14 12 -30 0 -33 24 -50 43
-31 8 8 8 11 -1 11 -16 0 -15 47 1 53 10 4 10 6 0 6 -7 1 -13 8 -13 16 0 21
-13 19 -35 -5z"/>
<path d="M1038 79 c-22 -12 -23 -52 -4 -69 18 -14 58 -10 64 8 3 9 -3 11 -22
6 -16 -4 -26 -2 -26 5 0 6 14 11 30 11 33 0 38 11 14 34 -18 18 -32 20 -56 5z
m42 -19 c0 -5 -7 -10 -15 -10 -8 0 -15 5 -15 10 0 6 7 10 15 10 8 0 15 -4 15
-10z"/>
<path d="M1143 83 c-18 -7 -16 -23 2 -23 8 0 15 5 15 11 0 5 5 7 12 3 8 -5 1
-12 -20 -21 -50 -20 -35 -50 26 -51 30 -1 32 2 32 32 0 47 -26 66 -67 49z m37
-53 c0 -5 -7 -10 -15 -10 -8 0 -15 5 -15 10 0 6 7 10 15 10 8 0 15 -4 15 -10z"/>
<path d="M1656 74 c-9 -8 -16 -22 -16 -29 0 -19 28 -45 49 -45 10 0 25 7 32
16 12 15 10 16 -20 9 -30 -6 -32 -5 -29 17 2 19 8 22 32 20 26 -3 28 -1 17 12
-17 20 -45 20 -65 0z"/>
<path d="M1818 79 c-22 -12 -23 -52 -4 -69 18 -14 58 -10 64 8 3 9 -3 11 -22
6 -16 -4 -26 -2 -26 5 0 6 14 11 30 11 33 0 38 11 14 34 -18 18 -32 20 -56 5z
m42 -19 c0 -5 -7 -10 -15 -10 -8 0 -15 5 -15 10 0 6 7 10 15 10 8 0 15 -4 15
-10z"/>
<path d="M1933 83 c-19 -4 -23 -11 -23 -44 0 -28 4 -39 15 -39 11 0 15 11 15
36 0 45 24 42 28 -4 5 -48 24 -38 20 10 -3 44 -11 50 -55 41z"/>
<path d="M2032 78 c-17 -17 -15 -53 3 -68 17 -14 65 -6 65 11 0 7 -10 9 -25 5
-22 -6 -25 -3 -25 19 0 22 3 25 25 19 27 -7 35 10 9 20 -24 9 -39 7 -52 -6z"/>
<path d="M2138 79 c-22 -12 -23 -52 -4 -69 18 -14 58 -10 64 8 3 9 -3 11 -22
6 -16 -4 -26 -2 -26 5 0 6 13 11 30 11 24 0 28 3 23 18 -12 31 -35 39 -65 21z
m42 -19 c0 -5 -7 -10 -15 -10 -8 0 -15 5 -15 10 0 6 7 10 15 10 8 0 15 -4 15
-10z"/>
<path d="M2416 74 c-9 -8 -16 -22 -16 -29 0 -19 28 -45 49 -45 10 0 25 7 32
16 12 15 10 16 -19 10 -21 -5 -32 -4 -32 3 0 6 14 11 30 11 31 0 39 17 18 38
-17 17 -44 15 -62 -4z m44 -14 c0 -5 -7 -10 -15 -10 -8 0 -15 5 -15 10 0 6 7
10 15 10 8 0 15 -4 15 -10z"/>
<path d="M2533 83 c-19 -4 -23 -11 -23 -44 0 -28 4 -39 15 -39 11 0 15 11 15
36 0 45 24 42 28 -4 4 -44 32 -43 32 1 0 33 -15 58 -34 56 -6 -1 -21 -4 -33
-6z"/>
<path d="M2706 74 c-19 -18 -20 -28 -6 -55 13 -23 53 -25 71 -3 12 15 10 16
-19 10 -21 -5 -32 -4 -32 3 0 6 14 11 30 11 35 0 41 23 11 40 -27 14 -37 13
-55 -6z m44 -14 c0 -5 -7 -10 -15 -10 -8 0 -15 5 -15 10 0 6 7 10 15 10 8 0
15 -4 15 -10z"/>
<path d="M2828 83 c-25 -4 -28 -8 -28 -44 0 -28 4 -39 15 -39 10 0 15 10 15
30 0 20 5 30 15 30 8 0 15 7 15 15 0 8 -1 14 -2 14 -2 -1 -15 -4 -30 -6z"/>
<path d="M2929 73 c-13 -15 -11 -16 14 -9 19 4 26 3 22 -4 -3 -5 -15 -10 -26
-10 -15 0 -20 -6 -17 -22 2 -19 10 -23 41 -24 36 -1 37 0 37 36 0 50 -42 69
-71 33z m41 -43 c0 -5 -7 -10 -15 -10 -8 0 -15 5 -15 10 0 6 7 10 15 10 8 0
15 -4 15 -10z"/>
<path d="M3290 76 c-15 -19 -9 -56 12 -69 26 -17 68 7 68 37 0 40 -55 61 -80
32z m50 -31 c0 -16 -6 -25 -15 -25 -9 0 -15 9 -15 25 0 16 6 25 15 25 9 0 15
-9 15 -25z"/>
<path d="M3513 83 c-22 -8 -14 -33 12 -43 33 -13 32 -22 -1 -14 -20 5 -25 3
-22 -7 6 -18 45 -24 64 -9 20 18 17 29 -11 40 -34 13 -32 22 3 14 24 -7 26 -6
13 9 -13 17 -34 20 -58 10z"/>
<path d="M3688 79 c-28 -16 -23 -57 8 -71 31 -14 57 -1 62 31 6 42 -31 63 -70
40z m45 -21 c6 -19 -3 -38 -19 -38 -8 0 -14 10 -14 25 0 26 25 35 33 13z"/>
<path d="M3810 83 c-23 -4 -25 -8 -22 -43 5 -48 19 -53 24 -8 4 43 26 48 30 7
2 -18 9 -34 16 -37 10 -3 12 7 10 39 -3 46 -9 50 -58 42z"/>
<path d="M1750 40 c0 -29 4 -40 15 -40 11 0 15 11 15 40 0 29 -4 40 -15 40
-11 0 -15 -11 -15 -40z"/>
<path d="M3390 51 c0 -35 15 -48 58 -49 31 -1 32 1 32 39 0 28 -4 39 -15 39
-10 0 -15 -10 -15 -30 0 -20 -5 -30 -15 -30 -10 0 -15 10 -15 30 0 20 -5 30
-15 30 -10 0 -15 -10 -15 -29z"/>
</g>
</svg>
